<svg xmlns="http://www.w3.org/2000/svg" width="468" height="657.5" viewBox="0.5 0 468 657.5"><g fill="#BC1E47"><circle cx="342.5" cy="189.5" r="6"/><circle cx="342.5" cy="171.5" r="6"/><circle cx="360.5" cy="189.5" r="6"/><circle cx="360.5" cy="171.5" r="6"/><circle cx="342.5" cy="288.5" r="6"/><circle cx="342.5" cy="270.5" r="6"/><circle cx="360.5" cy="288.5" r="6"/><circle cx="360.5" cy="270.5" r="6"/><circle cx="378.5" cy="288.5" r="6"/><circle cx="378.5" cy="270.5" r="6"/><circle cx="342.5" cy="396.5" r="6"/><circle cx="342.5" cy="378.5" r="6"/><circle cx="360.5" cy="396.5" r="6"/><circle cx="360.5" cy="378.5" r="6"/><circle cx="378.5" cy="396.5" r="6"/><circle cx="378.5" cy="378.5" r="6"/><circle cx="396.5" cy="396.5" r="6"/><circle cx="396.5" cy="378.5" r="6"/><circle cx="342.5" cy="522.5" r="6"/><circle cx="342.5" cy="504.5" r="6"/><circle cx="360.5" cy="522.5" r="6"/><circle cx="360.5" cy="504.5" r="6"/><circle cx="378.5" cy="522.5" r="6"/><circle cx="378.5" cy="504.5" r="6"/><circle cx="396.5" cy="522.5" r="6"/><circle cx="396.5" cy="504.5" r="6"/><circle cx="414.5" cy="522.5" r="6"/><circle cx="414.5" cy="504.5" r="6"/><circle cx="342.5" cy="450.5" r="6"/><circle cx="342.5" cy="432.5" r="6"/><circle cx="360.5" cy="432.5" r="6"/><circle cx="378.5" cy="432.5" r="6"/><circle cx="360.5" cy="450.5" r="6"/><circle cx="378.5" cy="450.5" r="6"/><circle cx="342.5" cy="468.5" r="6"/><circle cx="360.5" cy="468.5" r="6"/><circle cx="378.5" cy="468.5" r="6"/><circle cx="342.5" cy="621.5" r="6"/><circle cx="342.5" cy="603.5" r="6"/><circle cx="360.5" cy="603.5" r="6"/><circle cx="378.5" cy="603.5" r="6"/><circle cx="360.5" cy="621.5" r="6"/><circle cx="378.5" cy="621.5" r="6"/><circle cx="342.5" cy="639.5" r="6"/><circle cx="360.5" cy="639.5" r="6"/><circle cx="378.5" cy="639.5" r="6"/><circle cx="396.5" cy="603.5" r="6"/><circle cx="396.5" cy="621.5" r="6"/><circle cx="396.5" cy="639.5" r="6"/><path d="M302.65 15.337c1.179.837 1.768 1.755 1.768 2.754 0 .428-.149.827-.449 1.197-.3.37-.762.555-1.387.555-.456 0-.856-.156-1.201-.469s-.596-.768-.752-1.367l-.234-.938c-.169-.69-.462-1.178-.879-1.465-.43-.273-.996-.41-1.699-.41-1.484 0-2.737.649-3.76 1.946-1.022 1.297-1.533 3.021-1.533 5.172 0 1.969.563 3.736 1.689 5.3s2.646 2.347 4.561 2.347c1.354 0 2.559-.443 3.613-1.331.599-.508 1.276-1.317 2.031-2.426l.547.333c-.742 1.564-1.523 2.803-2.344 3.715-1.575 1.747-3.398 2.62-5.469 2.62-2.031 0-3.828-.801-5.391-2.402s-2.344-3.776-2.344-6.523c0-2.695.853-5.013 2.559-6.953 1.706-1.94 3.86-2.91 6.465-2.91 1.628 0 3.031.419 4.209 1.255zm7.09 1.528c1.647-1.79 3.767-2.686 6.357-2.686 2.578 0 4.714.847 6.406 2.539 1.692 1.693 2.539 3.945 2.539 6.758 0 2.591-.82 4.844-2.461 6.758s-3.763 2.871-6.367 2.871c-2.5 0-4.616-.918-6.348-2.754s-2.598-4.141-2.598-6.914c.002-2.59.825-4.781 2.472-6.572zm3.119-.498c-1.305 1.185-1.957 3.229-1.957 6.133 0 2.318.525 4.479 1.575 6.484 1.05 2.005 2.508 3.008 4.373 3.008 1.462 0 2.587-.67 3.376-2.012.789-1.341 1.184-3.099 1.184-5.273 0-2.252-.502-4.375-1.507-6.367s-2.459-2.988-4.363-2.988c-1.031 0-1.925.338-2.681 1.015zm14.039 15.625c1.016-.091 1.692-.26 2.031-.508.521-.377.781-1.133.781-2.266V19.121c0-.963-.127-1.595-.381-1.895-.254-.299-.674-.449-1.26-.449-.273 0-.479.013-.615.039a3.312 3.312 0 0 0-.479.137v-.683l1.406-.469a69.219 69.219 0 0 0 2.5-.918c1.159-.442 1.771-.664 1.836-.664s.104.033.117.098c.013.065.02.189.02.371v2.637c1.289-1.172 2.402-1.982 3.34-2.432s1.901-.674 2.891-.674c1.341 0 2.409.456 3.203 1.367.417.495.762 1.166 1.035 2.012.964-.977 1.804-1.699 2.52-2.168 1.237-.807 2.5-1.211 3.789-1.211 2.097 0 3.496.853 4.199 2.559.403.964.605 2.487.605 4.57v8.105c0 .925.205 1.553.615 1.885s1.149.55 2.217.654v.508h-8.809v-.547c1.133-.104 1.878-.332 2.236-.684s.537-1.067.537-2.148v-8.418c0-1.263-.137-2.194-.41-2.793-.481-1.067-1.426-1.602-2.832-1.602-.847 0-1.687.28-2.52.84-.481.326-1.074.847-1.777 1.562v10c0 1.055.186 1.855.557 2.402s1.155.84 2.354.879v.509h-8.965v-.508c1.237-.156 2.024-.456 2.363-.898.339-.442.508-1.536.508-3.281v-5.458c0-2.001-.13-3.378-.391-4.132-.43-1.276-1.341-1.914-2.734-1.914-.794 0-1.575.218-2.344.654a7.368 7.368 0 0 0-2.031 1.709v10.684c0 .99.173 1.673.518 2.051.345.378 1.097.573 2.256.586v.507h-8.887v-.508zm30.664 8.574c1.216-.078 1.988-.339 2.317-.781.33-.443.495-1.14.495-2.09v-18.75c0-.989-.12-1.624-.361-1.904-.241-.28-.693-.42-1.357-.42-.144 0-.276.007-.4.02a9.658 9.658 0 0 0-.537.078v-.645l1.855-.605c.065-.013 1.374-.462 3.926-1.348.065 0 .114.029.146.088s.049.127.049.205v2.636c.859-.859 1.614-1.497 2.266-1.914 1.172-.729 2.376-1.093 3.613-1.093 1.797 0 3.343.764 4.639 2.292s1.943 3.62 1.943 6.273c0 2.602-.778 4.962-2.334 7.083s-3.513 3.18-5.869 3.18c-.729 0-1.36-.091-1.895-.273-.833-.273-1.602-.774-2.305-1.503V37.5c0 1.315.215 2.122.645 2.422.43.299 1.367.501 2.812.605v.684h-9.648v-.645zm7.706-9.696c.671.436 1.462.653 2.373.653 1.406 0 2.607-.699 3.604-2.097s1.494-3.345 1.494-5.842c0-2.393-.518-4.181-1.553-5.364-1.035-1.184-2.236-1.775-3.604-1.775a4.31 4.31 0 0 0-2.637.888c-.794.591-1.191 1.173-1.191 1.745v9.812c.339.884.843 1.544 1.514 1.98zm15.586-14.005c1.647-1.79 3.767-2.686 6.357-2.686 2.578 0 4.714.847 6.406 2.539 1.692 1.693 2.539 3.945 2.539 6.758 0 2.591-.82 4.844-2.461 6.758s-3.763 2.871-6.367 2.871c-2.5 0-4.616-.918-6.348-2.754s-2.598-4.141-2.598-6.914c.001-2.59.824-4.781 2.472-6.572zm3.119-.498c-1.305 1.185-1.957 3.229-1.957 6.133 0 2.318.525 4.479 1.575 6.484 1.05 2.005 2.508 3.008 4.373 3.008 1.462 0 2.587-.67 3.376-2.012.789-1.341 1.184-3.099 1.184-5.273 0-2.252-.502-4.375-1.507-6.367s-2.459-2.988-4.363-2.988c-1.032 0-1.925.338-2.681 1.015zm15.484 9.981h.645c.299 1.484.701 2.624 1.208 3.418.909 1.458 2.241 2.188 3.995 2.188.974 0 1.743-.27 2.309-.811.565-.54.848-1.24.848-2.1 0-.547-.163-1.074-.488-1.582s-.898-1.002-1.719-1.484l-2.187-1.25c-1.602-.859-2.78-1.725-3.535-2.598-.756-.872-1.134-1.901-1.134-3.086 0-1.458.521-2.656 1.562-3.594s2.351-1.406 3.926-1.406c.69 0 1.448.13 2.275.391s1.292.391 1.396.391c.234 0 .403-.032.508-.098a.817.817 0 0 0 .273-.312h.469l.137 5.449h-.605c-.261-1.263-.612-2.246-1.055-2.949-.808-1.302-1.973-1.953-3.496-1.953-.911 0-1.628.28-2.148.84a2.803 2.803 0 0 0-.781 1.973c0 1.198.898 2.266 2.695 3.203l2.578 1.387c2.773 1.511 4.16 3.269 4.16 5.273 0 1.537-.575 2.793-1.726 3.77s-2.655 1.465-4.514 1.465c-.78 0-1.664-.13-2.651-.391-.988-.26-1.573-.391-1.755-.391a.581.581 0 0 0-.41.166 1.141 1.141 0 0 0-.272.4h-.508v-6.309zm14.258 5.605c1.394-.13 2.272-.368 2.637-.713.364-.345.547-1.279.547-2.803v-9.316c0-.846-.059-1.432-.176-1.758-.195-.534-.605-.801-1.23-.801a2.24 2.24 0 0 0-.42.039c-.137.026-.53.13-1.182.312v-.605l.84-.273c2.278-.742 3.867-1.302 4.766-1.68.364-.156.599-.234.703-.234.026.091.039.189.039.293v14.023c0 1.484.179 2.416.537 2.793.358.378 1.169.619 2.432.723v.547h-9.492v-.547zm3.105-26.116a1.94 1.94 0 0 1 1.445-.603c.56 0 1.038.198 1.436.593.397.396.596.878.596 1.448a1.94 1.94 0 0 1-.596 1.429 1.96 1.96 0 0 1-1.436.593 1.948 1.948 0 0 1-1.445-.593c-.391-.395-.586-.872-.586-1.429s.196-1.036.586-1.438zm17.403 8.655v1.406h-3.984l-.039 11.25c0 .99.085 1.738.254 2.246.312.898.925 1.348 1.836 1.348.469 0 .876-.11 1.221-.332.345-.221.739-.573 1.182-1.055l.508.43-.43.586c-.677.912-1.394 1.556-2.148 1.934s-1.484.566-2.188.566c-1.536 0-2.578-.684-3.125-2.051-.3-.742-.449-1.771-.449-3.086V15.898h-2.129c-.065-.039-.114-.078-.146-.117s-.049-.091-.049-.156c0-.13.029-.231.088-.303.059-.071.244-.237.557-.498.898-.742 1.546-1.344 1.943-1.807.397-.462 1.331-1.683 2.803-3.662.169 0 .271.013.303.039.032.026.049.124.049.293v4.805h3.943zm14.922 1.592c1.38 1.27 2.07 3.07 2.07 5.4h-12.402c.13 3.014.813 5.21 2.051 6.587s2.702 2.065 4.395 2.065c1.367 0 2.52-.357 3.457-1.072.938-.714 1.804-1.728 2.598-3.04l.684.234c-.534 1.657-1.533 3.189-2.998 4.597-1.465 1.409-3.259 2.113-5.381 2.113-2.448 0-4.339-.924-5.674-2.773-1.335-1.849-2.002-3.978-2.002-6.387 0-2.617.774-4.876 2.324-6.777 1.55-1.901 3.567-2.852 6.055-2.852 1.834.001 3.443.635 4.823 1.905zm-9.356 1.494c-.417.703-.716 1.589-.898 2.656h8.242c-.144-1.302-.391-2.272-.742-2.91-.638-1.146-1.706-1.719-3.203-1.719-1.485 0-2.618.658-3.399 1.973z"/></g><g fill="#0081CD"><circle cx="198.5" cy="72.5" r="6"/><circle cx="180.5" cy="72.5" r="6"/><circle cx="198.5" cy="126.5" r="6"/><circle cx="180.5" cy="126.5" r="6"/><circle cx="162.5" cy="126.5" r="6"/><circle cx="198.5" cy="225.5" r="6"/><circle cx="180.5" cy="225.5" r="6"/><circle cx="162.5" cy="225.5" r="6"/><circle cx="144.5" cy="225.5" r="6"/><circle cx="126.5" cy="225.5" r="6"/><circle cx="198.5" cy="333.5" r="6"/><circle cx="180.5" cy="333.5" r="6"/><circle cx="162.5" cy="333.5" r="6"/><circle cx="144.5" cy="333.5" r="6"/><circle cx="126.5" cy="333.5" r="6"/><circle cx="108.5" cy="333.5" r="6"/><circle cx="90.5" cy="333.5" r="6"/><circle cx="198.5" cy="567.5" r="6"/><circle cx="180.5" cy="567.5" r="6"/><circle cx="162.5" cy="567.5" r="6"/><circle cx="144.5" cy="567.5" r="6"/><circle cx="126.5" cy="567.5" r="6"/><circle cx="108.5" cy="567.5" r="6"/><circle cx="90.5" cy="567.5" r="6"/><circle cx="72.5" cy="567.5" r="6"/><circle cx="54.5" cy="567.5" r="6"/><circle cx="36.5" cy="567.5" r="6"/><circle cx="18.5" cy="567.5" r="6"/><path d="M159.395 40.566c1.215-.078 1.988-.339 2.318-.781.33-.443.495-1.14.495-2.09v-18.75c0-.989-.121-1.624-.361-1.904-.241-.28-.693-.42-1.357-.42-.144 0-.277.007-.4.02a9.658 9.658 0 0 0-.537.078v-.645l1.855-.605c.065-.013 1.374-.462 3.926-1.348.065 0 .114.029.146.088a.423.423 0 0 1 .049.205v2.636c.859-.859 1.614-1.497 2.266-1.914 1.172-.729 2.376-1.093 3.613-1.093 1.797 0 3.343.764 4.639 2.292 1.295 1.528 1.943 3.62 1.943 6.273 0 2.602-.778 4.962-2.334 7.083-1.556 2.12-3.513 3.18-5.869 3.18-.729 0-1.361-.091-1.895-.273-.833-.273-1.602-.774-2.305-1.503V37.5c0 1.315.215 2.122.645 2.422.43.299 1.367.501 2.812.605v.684h-9.648v-.645zm7.705-9.696c.67.436 1.461.653 2.373.653 1.406 0 2.607-.699 3.604-2.097s1.494-3.345 1.494-5.842c0-2.393-.518-4.181-1.553-5.364-1.035-1.184-2.236-1.775-3.604-1.775a4.31 4.31 0 0 0-2.637.888c-.794.591-1.191 1.173-1.191 1.745v9.812c.338.884.843 1.544 1.514 1.98zm12.275.985c1.198-.104 1.992-.315 2.383-.635.391-.319.586-.999.586-2.041V20.37c0-1.289-.121-2.21-.361-2.764-.241-.553-.681-.83-1.318-.83-.13 0-.303.017-.518.049-.215.033-.439.075-.674.127v-.645l2.278-.801a58.44 58.44 0 0 0 1.616-.586 34.384 34.384 0 0 0 2.005-.84c.091 0 .146.033.166.098.02.065.029.202.029.41v3.203c.835-1.159 1.642-2.063 2.418-2.715.777-.651 1.583-.977 2.419-.977.666 0 1.208.199 1.625.596.418.397.627.896.627 1.494 0 .534-.16.983-.479 1.348-.319.365-.72.547-1.201.547-.495 0-.993-.228-1.494-.684-.501-.456-.896-.684-1.182-.684-.456 0-1.016.368-1.68 1.104-.664.736-.996 1.494-.996 2.275v8.809c0 1.12.26 1.898.781 2.334.521.437 1.387.642 2.598.615v.647h-9.629v-.645zm13.926.098c1.393-.13 2.272-.368 2.637-.713.364-.345.547-1.279.547-2.803v-9.316c0-.846-.059-1.432-.176-1.758-.195-.534-.605-.801-1.23-.801a2.24 2.24 0 0 0-.42.039c-.137.026-.531.13-1.182.312v-.605l.84-.273c2.278-.742 3.867-1.302 4.766-1.68.364-.156.599-.234.703-.234.026.091.039.189.039.293v14.023c0 1.484.179 2.416.537 2.793.358.378 1.168.619 2.432.723v.547h-9.492v-.547zm3.105-26.116a1.94 1.94 0 0 1 1.445-.603c.56 0 1.038.198 1.436.593.397.396.596.878.596 1.448 0 .557-.199 1.034-.596 1.429a1.96 1.96 0 0 1-1.436.593 1.948 1.948 0 0 1-1.445-.593c-.391-.395-.586-.872-.586-1.429s.196-1.036.586-1.438zm7.871 26.155c1.016-.091 1.692-.26 2.031-.508.521-.377.781-1.133.781-2.266V19.121c0-.963-.127-1.595-.381-1.895-.254-.299-.674-.449-1.26-.449-.273 0-.479.013-.615.039a3.312 3.312 0 0 0-.479.137v-.683l1.406-.469a69.219 69.219 0 0 0 2.5-.918c1.159-.442 1.771-.664 1.836-.664.065 0 .104.033.117.098.013.065.02.189.02.371v2.637c1.289-1.172 2.402-1.982 3.34-2.432s1.901-.674 2.891-.674c1.341 0 2.409.456 3.203 1.367.417.495.762 1.166 1.035 2.012.963-.977 1.803-1.699 2.52-2.168 1.237-.807 2.5-1.211 3.789-1.211 2.096 0 3.496.853 4.199 2.559.403.964.605 2.487.605 4.57v8.105c0 .925.205 1.553.615 1.885s1.149.55 2.217.654v.508h-8.809v-.547c1.133-.104 1.878-.332 2.236-.684.358-.352.537-1.067.537-2.148v-8.418c0-1.263-.137-2.194-.41-2.793-.482-1.067-1.426-1.602-2.832-1.602-.847 0-1.687.28-2.52.84-.482.326-1.074.847-1.777 1.562v10c0 1.055.186 1.855.557 2.402s1.155.84 2.354.879v.509h-8.965v-.508c1.237-.156 2.024-.456 2.363-.898.338-.442.508-1.536.508-3.281v-5.458c0-2.001-.13-3.378-.391-4.132-.43-1.276-1.341-1.914-2.734-1.914-.794 0-1.576.218-2.344.654a7.368 7.368 0 0 0-2.031 1.709v10.684c0 .99.172 1.673.518 2.051.345.378 1.097.573 2.256.586v.507h-8.887v-.508zm44.453-15.908c1.38 1.27 2.07 3.07 2.07 5.4h-12.402c.13 3.014.813 5.21 2.051 6.587 1.237 1.377 2.702 2.065 4.395 2.065 1.367 0 2.52-.357 3.457-1.072.938-.714 1.803-1.728 2.598-3.04l.684.234c-.534 1.657-1.533 3.189-2.998 4.597-1.465 1.409-3.259 2.113-5.381 2.113-2.448 0-4.339-.924-5.674-2.773-1.335-1.849-2.002-3.978-2.002-6.387 0-2.617.774-4.876 2.324-6.777 1.549-1.901 3.567-2.852 6.055-2.852 1.835.001 3.443.635 4.823 1.905zm-9.355 1.494c-.417.703-.716 1.589-.898 2.656h8.242c-.144-1.302-.391-2.272-.742-2.91-.638-1.146-1.706-1.719-3.203-1.719-1.485 0-2.618.658-3.399 1.973z"/></g><path d="M234.691 86.051c4.766-4.945 8.001-8.575 9.707-10.891 1.706-2.315 2.559-4.573 2.559-6.771 0-1.925-.521-3.392-1.562-4.4-1.042-1.009-2.285-1.513-3.73-1.513-1.784 0-3.229.65-4.336 1.951-.612.716-1.198 1.815-1.758 3.298l-.84-.175c.651-2.993 1.754-5.072 3.311-6.237 1.556-1.165 3.226-1.747 5.01-1.747 2.2 0 3.981.693 5.342 2.079 1.36 1.385 2.041 3.08 2.041 5.083 0 2.134-.736 4.189-2.208 6.167s-4.669 5.497-9.593 10.558h8.968c1.25 0 2.129-.149 2.638-.449.508-.299 1.081-1.028 1.719-2.186l.508.234-2.168 5.447h-15.605v-.448zm4.756 52.174c1.178.749 2.178 1.123 2.998 1.123 1.823 0 3.177-.616 4.062-1.849.885-1.232 1.328-2.572 1.328-4.02 0-1.396-.358-2.622-1.074-3.678-1.211-1.787-3.255-2.68-6.133-2.68-.169 0-.332.003-.488.01a7.003 7.003 0 0 0-.547.049l-.039-.508c2.083-.755 3.724-1.621 4.922-2.598 1.198-.977 1.797-2.266 1.797-3.867 0-1.419-.472-2.5-1.416-3.242a5.087 5.087 0 0 0-3.232-1.113c-1.433 0-2.695.527-3.789 1.582-.599.573-1.244 1.458-1.934 2.656l-.605-.137c.521-1.979 1.491-3.561 2.91-4.746 1.419-1.185 3.06-1.777 4.922-1.777 1.992 0 3.532.547 4.619 1.641 1.087 1.094 1.631 2.357 1.631 3.789 0 1.263-.449 2.422-1.348 3.477-.508.599-1.296 1.27-2.363 2.012 1.25.534 2.252 1.159 3.008 1.875 1.419 1.367 2.129 3.099 2.129 5.195 0 2.474-.974 4.655-2.92 6.543-1.947 1.888-4.717 2.832-8.311 2.832-1.602 0-2.725-.238-3.369-.713s-.967-.986-.967-1.533c0-.338.107-.664.322-.977s.563-.469 1.045-.469c.716 0 1.664.374 2.842 1.123zm61.002 29.439h1.855v17.578h4.082v2.598h-4.082v6.66h-3.105v-6.66h-11.25v-2.598l12.5-17.578zm-1.289 4.032l-9.585 13.546h9.585v-13.546zm-59.745 65.49c1.206.84 2.136 1.26 2.788 1.26 1.5 0 2.81-.661 3.932-1.982 1.121-1.321 1.682-2.946 1.682-4.873 0-3.372-1.8-5.801-5.398-7.285-1.995-.82-3.853-1.23-5.574-1.23-.287 0-.466-.01-.538-.029s-.16-.087-.264-.205l.068-.264c.02-.071.042-.14.068-.205l4.26-9.336h8.375c.416 0 .738-.071.966-.215.228-.143.524-.41.888-.801l.312.273-1.505 3.613c-.052.117-.195.192-.429.225a5.494 5.494 0 0 1-.762.049h-7.568l-1.663 3.418c2.138.365 3.702.71 4.693 1.035 1.629.547 2.992 1.354 4.086 2.422a9.489 9.489 0 0 1 2.131 3.115 9.393 9.393 0 0 1 .724 3.662c0 2.878-1.027 5.28-3.08 7.207-2.053 1.927-4.651 2.891-7.793 2.891-1.277 0-2.307-.124-3.089-.371-1.304-.403-1.956-1.126-1.956-2.168 0-.391.14-.732.42-1.025s.714-.439 1.301-.439c.744-.002 1.719.418 2.925 1.258zm64.501 53.873c-1.53 1.914-3.519 2.871-5.967 2.871-2.292 0-4.378-1.074-6.26-3.223s-2.822-5.006-2.822-8.574c0-4.596 1.823-8.542 5.469-11.836 3.255-2.76 6.914-4.141 10.977-4.141l.098.645c-1.628.3-3.03.707-4.209 1.221a10.211 10.211 0 0 0-3.154 2.158c-.95.938-1.843 2.129-2.676 3.574s-1.406 2.878-1.719 4.297c.808-.495 1.504-.859 2.09-1.094a8.403 8.403 0 0 1 3.145-.625c2.07 0 3.809.716 5.215 2.148 1.406 1.433 2.109 3.477 2.109 6.133-.001 2.383-.766 4.532-2.296 6.446zm-2.1-9.551c-.911-2.239-2.461-3.359-4.648-3.359-2.019 0-3.359.599-4.023 1.797-.391.703-.586 1.875-.586 3.516 0 2.123.452 4.199 1.357 6.23s2.334 3.047 4.287 3.047c1.55 0 2.676-.661 3.379-1.982.703-1.321 1.055-2.868 1.055-4.639 0-1.732-.274-3.269-.821-4.61zm-50.367 39.527v.645l-8.477 26.191h-2.565l7.896-23.887h-8.515c-1.263 0-2.171.208-2.724.625s-1.253 1.289-2.099 2.617l-.684-.312c.846-2.083 1.37-3.369 1.572-3.857.202-.488.465-1.162.791-2.021h14.805zm39.84 63.844c-.964-1.25-1.445-2.63-1.445-4.141 0-1.719.713-3.177 2.139-4.375s3.278-1.797 5.557-1.797c2.097 0 3.763.566 5 1.699 1.237 1.134 1.855 2.449 1.855 3.946 0 1.524-.632 2.892-1.895 4.103-.729.69-1.907 1.484-3.535 2.383 2.214 1.641 3.799 3.07 4.756 4.287s1.436 2.652 1.436 4.306c0 1.875-.706 3.45-2.119 4.726-1.413 1.276-3.304 1.914-5.674 1.914-2.122 0-3.942-.589-5.459-1.768s-2.275-2.731-2.275-4.658c0-1.653.527-3.112 1.582-4.375.69-.82 1.888-1.804 3.594-2.949-1.72-1.38-2.892-2.481-3.517-3.301zm9.668 14.689c.769-.832 1.152-1.872 1.152-3.12 0-1.417-.407-2.564-1.221-3.442-.813-.877-2.483-2.207-5.01-3.987-1.12.702-1.934 1.612-2.441 2.73s-.762 2.196-.762 3.236c0 1.781.459 3.198 1.377 4.251.918 1.054 2.087 1.58 3.506 1.58 1.498 0 2.63-.416 3.399-1.248zm-.605-15.815c.808-1.001 1.211-2.21 1.211-3.627 0-1.235-.381-2.285-1.143-3.149s-1.917-1.297-3.467-1.297c-1.198 0-2.188.377-2.969 1.131-.781.755-1.172 1.671-1.172 2.75 0 1.222.459 2.356 1.377 3.402.918 1.047 2.126 2.032 3.623 2.955 1.224-.858 2.071-1.579 2.54-2.165zm3.222 57.241c1.562 2.285 2.344 4.834 2.344 7.646 0 1.979-.371 3.991-1.113 6.035s-1.823 3.867-3.242 5.469c-1.653 1.849-3.75 3.223-6.289 4.121-1.419.508-3.21.898-5.371 1.172l-.195-.781c1.356-.312 2.484-.645 3.385-.996 1.616-.638 2.914-1.419 3.893-2.344 1.382-1.315 2.487-2.783 3.315-4.404s1.347-2.979 1.556-4.072l-.685.504c-.965.723-2.1 1.22-3.404 1.49a8.39 8.39 0 0 1-1.857.232c-2.217 0-3.974-.783-5.271-2.351s-1.946-3.438-1.946-5.609c0-2.771.771-5.053 2.314-6.848s3.519-2.692 5.928-2.692c2.862 0 5.076 1.143 6.638 3.428zm-3.334 11.572c.946-.495 1.484-.911 1.614-1.25.053-.13.099-.615.138-1.455s.059-1.521.059-2.041c0-2.708-.457-4.909-1.37-6.602s-2.251-2.539-4.012-2.539c-1.279 0-2.312.579-3.103 1.738-.789 1.159-1.184 2.891-1.184 5.195 0 1.901.368 3.659 1.105 5.273s2.071 2.422 4.003 2.422c.888.002 1.804-.245 2.75-.741zm-10.816 48.245c.007.032.01.107.01.225v23.516c0 1.003.269 1.641.805 1.914s1.538.437 3.004.488v.547h-11.035v-.586c1.575-.078 2.604-.293 3.086-.645s.723-1.113.723-2.285v-18.086c0-.625-.078-1.101-.234-1.426s-.495-.488-1.016-.488c-.339 0-.778.095-1.318.283s-1.045.388-1.514.596v-.547l7.168-3.652h.234c.051.064.08.113.087.146zm24.56 4.521c1.315 2.539 1.973 5.456 1.973 8.75 0 2.591-.403 5.032-1.211 7.324-1.523 4.31-4.16 6.465-7.91 6.465-2.565 0-4.675-1.165-6.328-3.496-1.771-2.487-2.656-5.866-2.656-10.137 0-3.359.593-6.25 1.777-8.672 1.602-3.294 4.062-4.941 7.383-4.941 2.995 0 5.319 1.569 6.972 4.707zm-2.968 18.283c.716-2.094 1.074-5.126 1.074-9.094 0-3.162-.215-5.686-.645-7.572-.808-3.513-2.317-5.27-4.531-5.27s-3.73 1.809-4.551 5.426c-.43 1.926-.645 4.463-.645 7.611 0 2.953.222 5.314.664 7.084.833 3.305 2.396 4.957 4.688 4.957 1.914.001 3.23-1.046 3.946-3.142zm-74.86 31.196c.006.032.01.107.01.225v23.516c0 1.003.268 1.641.805 1.914s1.538.437 3.004.488v.547H228.94v-.586c1.575-.078 2.604-.293 3.086-.645.481-.352.723-1.113.723-2.285v-18.086c0-.625-.078-1.101-.234-1.426s-.495-.488-1.016-.488c-.339 0-.778.095-1.318.283-.541.188-1.045.388-1.514.596v-.547l7.168-3.652h.234c.051.064.08.113.087.146zm18.535 0c.006.032.01.107.01.225v23.516c0 1.003.268 1.641.805 1.914s1.538.437 3.004.488v.547h-11.035v-.586c1.575-.078 2.604-.293 3.086-.645.481-.352.723-1.113.723-2.285v-18.086c0-.625-.078-1.101-.234-1.426s-.495-.488-1.016-.488c-.339 0-.778.095-1.318.283-.541.188-1.045.388-1.514.596v-.547l7.168-3.652h.234a.407.407 0 0 1 .087.146zM289.424 608.311c.007.032.01.107.01.225v23.516c0 1.003.269 1.641.805 1.914s1.538.437 3.004.488V635h-11.035v-.586c1.575-.078 2.604-.293 3.086-.645s.723-1.113.723-2.285v-18.086c0-.625-.078-1.101-.234-1.426s-.495-.488-1.016-.488c-.339 0-.778.095-1.318.283s-1.045.388-1.514.596v-.547l7.168-3.652h.234c.051.065.08.114.087.147zm9.267 26.24c4.766-4.944 8.001-8.575 9.707-10.891s2.559-4.572 2.559-6.771c0-1.925-.521-3.392-1.562-4.399-1.042-1.009-2.285-1.513-3.73-1.513-1.784 0-3.229.65-4.336 1.951-.612.716-1.198 1.815-1.758 3.298l-.84-.176c.651-2.993 1.755-5.071 3.311-6.236 1.556-1.164 3.226-1.747 5.01-1.747 2.2 0 3.981.693 5.342 2.078 1.36 1.386 2.041 3.08 2.041 5.084 0 2.134-.736 4.189-2.208 6.167s-4.669 5.497-9.593 10.558h8.967c1.251 0 2.13-.149 2.638-.448.508-.3 1.081-1.028 1.72-2.187l.508.234-2.17 5.447h-15.605v-.449z"/></svg>